<svg xmlns="http://www.w3.org/2000/svg" xmlns:xlink="http://www.w3.org/1999/xlink" width="256" height="256" fill="none" xmlns:v="https://vecta.io/nano"><g clip-path="url(#H)"><path fill="#3e4366" d="M0 0h256v256H0z"/><ellipse cx="127" cy="129" rx="105" ry="104" fill="url(#C)"/><path transform="rotate(343.352 6.797 145.627)" fill="url(#D)" d="M6.797 145.627h102.217v126.14H6.797z"/><path transform="rotate(343.112 17.671 150.811)" fill="url(#E)" d="M17.671 150.811h126.14v77.987H17.671z"/><g filter="url(#A)"><rect x="129.851" y="77.196" width="128.315" height="156.587" rx="2" transform="rotate(14.955 129.851 77.196)" fill="#fff"/></g><path transform="rotate(14.986 120.721 83.72)" fill="url(#F)" d="M120.721 83.72h126.14v111.029h-126.14z"/><g filter="url(#B)"><rect x="38" y="48.412" width="154.413" height="198.19" rx="2" transform="rotate(355.017 38 48.412)" fill="#fef9ff"/></g><path d="M53.312 58.573l128.549-10.778 5.18 61.783-128.549 10.778-5.18-61.783z" fill="url(#G)"/><path d="M59.16 128.328l60.787-5.096 5.18 61.783-60.787 5.096-5.18-61.783z" fill="url(#G)"/><path d="M127.919 122.563l60.786-5.096 5.18 61.783-60.786 5.096-5.18-61.783z" fill="url(#G)"/><path d="M65.008 198.083l60.787-5.096 5.18 61.783-60.787 5.096-5.18-61.783z" fill="url(#G)"/><path d="M133.767 192.318l60.787-5.096 5.179 61.783-60.786 5.097-5.18-61.784z" fill="url(#G)"/><path fill-rule="evenodd" d="M126.988 232.791c57.971 0 104.966-47.036 104.966-105.058 0-18.131-4.59-35.19-12.669-50.076C240.122 50.078 271.558 35.618 329 59.204 329 138.76 234.338 384.4 154.852 384.4S-80 188.062-80 108.507C-30.277 83.623.369 91.354 23.373 110.835c-.889 5.501-1.351 11.146-1.351 16.898 0 58.022 46.995 105.058 104.966 105.058z" fill="#404669"/></g><defs><filter id="A" x="85.441" y="73.196" width="172.378" height="192.397" filterUnits="userSpaceOnUse" color-interpolation-filters="sRGB"><feFlood flood-opacity="0" result="A"/><feColorMatrix in="SourceAlpha" values="0 0 0 0 0 0 0 0 0 0 0 0 0 0 0 0 0 0 127 0" result="B"/><feOffset/><feGaussianBlur stdDeviation="2"/><feComposite in2="B" operator="out"/><feColorMatrix values="0 0 0 0 0 0 0 0 0 0 0 0 0 0 0 0 0 0 0.25 0"/><feBlend in2="A"/><feBlend in="SourceGraphic"/></filter><filter id="B" x="-72" y="-75" width="391.043" height="430.853" filterUnits="userSpaceOnUse" color-interpolation-filters="sRGB"><feFlood flood-opacity="0" result="A"/><feColorMatrix in="SourceAlpha" values="0 0 0 0 0 0 0 0 0 0 0 0 0 0 0 0 0 0 127 0" result="B"/><feOffset/><feGaussianBlur stdDeviation="55"/><feComposite in2="B" operator="out"/><feColorMatrix values="0 0 0 0 0.473958 0 0 0 0 0.491217 0 0 0 0 0.65 0 0 0 0.3 0"/><feBlend in2="A"/><feBlend in="SourceGraphic"/></filter><linearGradient id="C" x1="69.929" y1="21.55" x2="86.534" y2="138.41" xlink:href="#I"><stop stop-color="#fff"/><stop offset="0" stop-color="#fff"/><stop offset="1" stop-color="#fdf8ff"/></linearGradient><linearGradient id="D" x1="57.906" y1="145.627" x2="57.906" y2="271.767" xlink:href="#I"><stop stop-color="#9258ea"/><stop offset="1" stop-color="#6f1ced"/></linearGradient><linearGradient id="E" x1="80.741" y1="150.811" x2="80.741" y2="228.798" xlink:href="#I"><stop stop-color="#9258ea"/><stop offset="1" stop-color="#6f1ced"/></linearGradient><linearGradient id="F" x1="183.791" y1="83.72" x2="183.791" y2="194.749" xlink:href="#I"><stop stop-color="#9258ea"/><stop offset="1" stop-color="#6f1ced"/></linearGradient><linearGradient id="G" x1="127.635" y1="47.229" x2="125.409" y2="260.443" xlink:href="#I"><stop stop-color="#9258ea"/><stop offset="1" stop-color="#6f1ced"/></linearGradient><clipPath id="H"><path fill="#fff" d="M0 0h256v256H0z"/></clipPath><linearGradient id="I" gradientUnits="userSpaceOnUse"/></defs></svg>